<?xml version="1.0" standalone="no"?>
<!DOCTYPE svg PUBLIC "-//W3C//DTD SVG 1.1//EN" "http://www.w3.org/Graphics/SVG/1.1/DTD/svg11.dtd">
<svg xmlns:inkscape="http://www.inkscape.org/namespaces/inkscape" xmlns:sodipodi="http://sodipodi.sourceforge.net/DTD/sodipodi-0.dtd" xmlns="http://www.w3.org/2000/svg" xmlns:svg="http://www.w3.org/2000/svg" width="512" height="512" viewBox="0 0 512 512" version="1.1" id="svg5" xml:space="preserve" inkscape:version="1.2.2 (732a01da63, 2022-12-09)" sodipodi:docname="learnspacelogolg.svg"><sodipodi:namedview id="namedview7" pagecolor="#ffffff" bordercolor="#000000" borderopacity="0.25" inkscape:showpageshadow="2" inkscape:pageopacity="0.0" inkscape:pagecheckerboard="0" inkscape:deskcolor="#d1d1d1" inkscape:document-units="px" showgrid="false" inkscape:zoom="0.71401212" inkscape:cx="89.634333" inkscape:cy="165.2633" inkscape:window-width="1366" inkscape:window-height="697" inkscape:window-x="-8" inkscape:window-y="-8" inkscape:window-maximized="1" inkscape:current-layer="layer1"/><defs id="defs2"/><g inkscape:label="Camada 1" inkscape:groupmode="layer" id="layer1"><g id="g8596" transform="matrix(2.3343889,0,0,2.3346154,34.999992,-4.7877855e-6)"><path sodipodi:type="star" style="fill:#f94444;fill-opacity:1" id="path3828" inkscape:flatsided="true" sodipodi:sides="6" sodipodi:cx="-243.69334" sodipodi:cy="-205.87886" sodipodi:r1="109.65404" sodipodi:r2="94.963188" sodipodi:arg1="0.52359878" sodipodi:arg2="1.0471976" inkscape:rounded="0" inkscape:randomized="0" d="m -148.73016,-151.05184 -94.96318,54.827017 -94.96319,-54.827017 0,-109.65404 94.96319,-54.82702 94.96318,54.82702 z" transform="translate(338.65653,315.5329)"/><g id="g4909" transform="translate(23.251246,-114.90307)"><circle style="fill:none;fill-opacity:1;stroke:#ffffff;stroke-width:4.31755;stroke-dasharray:none;stroke-opacity:1" id="path4605" cx="71.922638" cy="224.92844" r="18.038517"/><path style="fill:none;fill-opacity:1;stroke:#ffffff;stroke-width:4;stroke-linecap:round;stroke-dasharray:none;stroke-opacity:1" d="m 37.114216,268.20273 c 0,0 -22.058449,-41.49089 14.180431,-67.75095" id="path4661"/><path style="fill:none;fill-opacity:1;stroke:#ffffff;stroke-width:4;stroke-linecap:round;stroke-dasharray:none;stroke-opacity:1" d="m 85.205451,275.13619 c 0,0 -41.835,-3.36885 -44.155085,-43.27392" id="path4661-8"/><path style="fill:none;fill-opacity:1;stroke:#ffffff;stroke-width:4;stroke-linecap:round;stroke-dasharray:none;stroke-opacity:1" d="m 122.8829,237.90315 c 0,0 -20.37482,33.35147 -63.955826,16.7837" id="path4661-8-3" sodipodi:nodetypes="cc"/><path style="fill:none;fill-opacity:1;stroke:#ffffff;stroke-width:4;stroke-linecap:round;stroke-dasharray:none;stroke-opacity:1" d="m 107.05015,182.82226 c 0,0 22.32515,39.40228 -16.219201,67.48431" id="path4661-8-3-0" sodipodi:nodetypes="cc"/><path style="fill:none;fill-opacity:1;stroke:#ffffff;stroke-width:4;stroke-linecap:round;stroke-dasharray:none;stroke-opacity:1" d="m 20.540965,212.47834 c 0,0 22.22916,-34.05637 64.407812,-16.61302" id="path4661-8-3-0-7" sodipodi:nodetypes="cc"/><path style="fill:none;fill-opacity:1;stroke:#ffffff;stroke-width:4;stroke-linecap:round;stroke-dasharray:none;stroke-opacity:1" d="m 59.267441,174.58413 c 0,0 37.838311,3.31901 44.256329,44.25801" id="path4661-8-3-0-7-6" sodipodi:nodetypes="cc"/><path style="fill:none;fill-opacity:1;stroke:#ffffff;stroke-width:4;stroke-linecap:round;stroke-dasharray:none;stroke-opacity:1" d="m 28.843327,213.66344 c 0,0 -3.466151,4.08511 -6.68472,12.13153" id="path4884"/><path style="fill:none;fill-opacity:1;stroke:#ffffff;stroke-width:4;stroke-linecap:round;stroke-dasharray:none;stroke-opacity:1" d="m 41.222437,255.87621 c 0,0 1.856867,9.16054 12.626693,20.7969" id="path4886"/><path style="fill:none;fill-opacity:1;stroke:#ffffff;stroke-width:4;stroke-linecap:round;stroke-dasharray:none;stroke-opacity:1" d="m 83.187621,267.63636 c 0,0 19.558999,3.46615 35.156669,-4.58027" id="path4888"/><path style="fill:none;fill-opacity:1;stroke:#ffffff;stroke-width:4;stroke-linecap:round;stroke-dasharray:none;stroke-opacity:1" d="m 115.00193,236.06963 c 0,0 5.19923,-5.69439 7.0561,-12.5029" id="path4890"/><path style="fill:none;fill-opacity:1;stroke:#ffffff;stroke-width:4;stroke-linecap:round;stroke-dasharray:none;stroke-opacity:1" d="m 103.61315,194.10445 c 0,0 -4.580268,-12.37911 -14.607347,-21.66344" id="path4892"/><path style="fill:none;fill-opacity:1;stroke:#ffffff;stroke-width:4;stroke-linecap:round;stroke-dasharray:none;stroke-opacity:1" d="m 60.533849,182.46809 c 0,0 -19.806576,-4.08511 -34.413926,4.70406" id="path4894"/></g></g><path style="fill:#000000" id="path3764" d=""/></g></svg>